<svg width="200" height="157" viewBox="0 0 200 157" fill="none" xmlns="http://www.w3.org/2000/svg">
<path d="M60 17.57C58.17 17.57 56.5 18.32 55.29 19.53C54.08 20.74 53.33 22.4 53.33 24.24V67.71C53.33 68.06 53.29 68.42 53.22 68.77V69.81C52.67 72.92 49.93 75.32 46.67 75.32C44.86 75.32 43.21 74.59 42.01 73.42C40.81 72.24 40.04 70.62 40 68.83V51.3C40 47.63 37 44.63 33.32 44.63C31.48 44.63 29.82 45.38 28.61 46.59C27.4 47.8 26.65 49.47 26.65 51.3V68.66C26.65 72.33 23.65 75.33 19.99 75.33C18.79 75.33 17.66 75.01 16.69 74.45C14.71 73.45 13.09 71.78 11.31 70.45C10.72 70 10.1 69.59 9.45001 69.25C9.03001 69.03 8.60001 68.85 8.16001 68.71C7.68001 68.6 7.17001 68.54 6.67001 68.54C3.00001 68.54 0.0100098 71.54 0.0100098 75.2V81.61C0.0100098 85.28 3.02001 88.27 6.67001 88.27C7.09001 88.27 7.50001 88.23 7.90001 88.16C8.45001 88.02 8.95001 87.81 9.45001 87.56C10.13 87.21 10.78 86.77 11.4 86.29C13.24 84.89 14.95 83.12 17.07 82.18C17.95 81.75 18.95 81.51 19.99 81.51C23.65 81.51 26.65 84.51 26.65 88.16V105.52C26.65 109.18 29.65 112.18 33.32 112.18C35.16 112.18 36.83 111.43 38.04 110.22C39.25 109.01 40 107.35 40 105.51V88C40.09 84.41 43.05 81.5 46.67 81.5C48.3 81.5 49.8 82.1 50.96 83.08C52.12 84.07 52.94 85.45 53.22 87.01V88.04C53.29 88.38 53.33 88.74 53.33 89.09V132.55C53.33 136.22 56.34 139.22 60 139.22C61.84 139.22 63.5 138.47 64.71 137.26C65.92 136.05 66.67 134.38 66.67 132.55V24.24C66.67 20.58 63.67 17.58 60 17.58V17.57ZM193.35 68.55C192.84 68.55 192.35 68.61 191.87 68.71C191.42 68.85 190.99 69.03 190.57 69.25C189.92 69.59 189.29 70 188.71 70.45C186.93 71.79 185.31 73.46 183.33 74.44C182.34 75.01 181.23 75.33 180.03 75.33C176.37 75.33 173.37 72.33 173.37 68.67V51.3C173.37 47.64 170.37 44.64 166.71 44.64C164.88 44.64 163.21 45.39 162 46.6C160.79 47.81 160.04 49.47 160.04 51.31V67.83C160.02 68.14 159.99 68.44 159.94 68.75V69.8C159.4 72.93 156.65 75.33 153.37 75.33C151.59 75.33 149.98 74.63 148.78 73.49C147.58 72.35 146.8 70.78 146.7 69.03V67.88C146.7 67.79 146.7 67.69 146.7 67.6V24.24C146.7 20.58 143.7 17.58 140.03 17.58C138.2 17.58 136.53 18.33 135.32 19.54C134.11 20.75 133.36 22.41 133.36 24.25V132.58C133.36 136.25 136.36 139.25 140.02 139.25C141.85 139.25 143.52 138.5 144.73 137.29C145.94 136.08 146.69 134.41 146.69 132.58V89.22C146.69 89.13 146.69 89.03 146.69 88.95V87.81C146.89 84.31 149.8 81.52 153.36 81.52C155 81.52 156.51 82.12 157.67 83.11C158.83 84.1 159.66 85.48 159.93 87.05V88.11C159.98 88.41 160.01 88.72 160.03 89.03V105.55C160.03 109.21 163.03 112.21 166.7 112.21C168.53 112.21 170.2 111.46 171.41 110.25C172.62 109.04 173.37 107.38 173.37 105.54V88.18C173.37 84.51 176.37 81.52 180.03 81.52C181.08 81.52 182.07 81.77 182.95 82.2C185.07 83.14 186.78 84.91 188.63 86.31C189.25 86.78 189.9 87.23 190.58 87.58C191.08 87.83 191.6 88.03 192.13 88.18C192.53 88.26 192.94 88.29 193.36 88.29C197.03 88.29 200.01 85.29 200.01 81.63V75.22C200.01 71.55 197.01 68.56 193.36 68.56L193.35 68.55ZM120.02 20V55.4C120.02 58.66 117.02 61.31 113.35 61.31C109.67 61.31 106.69 58.33 106.69 54.65V32.61L106.64 19.99C106.64 16.34 103.65 13.36 100.02 13.36C98.19 13.36 96.54 14.11 95.34 15.31C94.14 16.51 93.4 18.17 93.4 19.99L93.38 136.79C93.38 140.43 96.37 143.42 100.01 143.42C101.83 143.42 103.49 142.67 104.69 141.47C105.89 140.27 106.64 138.61 106.64 136.79V99.46C106.64 95.93 109.5 93.06 113.04 93.06H113.61C117.15 93.06 120.01 95.94 120.01 99.46V136.78C120.01 147.78 111.01 156.78 100.01 156.78C94.51 156.78 89.51 154.53 85.88 150.9C82.25 147.28 80 142.28 80 136.78V20C80 8.99 89 0 100 0C111.01 0 120.01 9 120.01 20H120.02Z" fill="url(#paint0_linear_14_345)"/>
<defs>
<linearGradient id="paint0_linear_14_345" x1="44.84" y1="133.56" x2="150.78" y2="27.62" gradientUnits="userSpaceOnUse">
<stop stop-color="#F3BA50"/>
<stop offset="0.2" stop-color="#EDA04B"/>
<stop offset="0.38" stop-color="#EA8F48"/>
<stop offset="0.53" stop-color="#E98A48"/>
<stop offset="0.65" stop-color="#EA8F48"/>
<stop offset="0.82" stop-color="#EDA04B"/>
<stop offset="1" stop-color="#F3BA50"/>
</linearGradient>
</defs>
</svg>
